<svg width="8192" height="3027" viewBox="0 0 8192 3027" fill="none" xmlns="http://www.w3.org/2000/svg">
<rect width="8192" height="3027" fill="#E5E5E5"/>
<g clip-path="url(#clip0_110_53)">
<rect width="8192" height="3027" fill="white"/>
<rect x="4509" y="810" width="3540" height="1719" fill="#33B6E8" fill-opacity="0.1"/>
<rect x="111.445" y="1498.06" width="944.789" height="426.11" fill="black" stroke="white" stroke-width="9.16365"/>
<path d="M416.005 1716.62H385.932V1748.27H376.482V1676.61H420.877V1684.38H385.932V1708.89H416.005V1716.62ZM455.232 1703.18C453.854 1702.95 452.361 1702.84 450.753 1702.84C444.781 1702.84 440.729 1705.38 438.596 1710.47V1748.27H429.491V1695.01H438.35L438.498 1701.17C441.484 1696.41 445.717 1694.03 451.196 1694.03C452.968 1694.03 454.313 1694.26 455.232 1694.72V1703.18ZM460.253 1721.15C460.253 1715.93 461.27 1711.24 463.304 1707.07C465.371 1702.91 468.226 1699.69 471.868 1697.43C475.543 1695.16 479.727 1694.03 484.419 1694.03C491.671 1694.03 497.528 1696.54 501.99 1701.56C506.485 1706.58 508.733 1713.26 508.733 1721.59V1722.23C508.733 1727.42 507.732 1732.08 505.731 1736.21C503.762 1740.31 500.924 1743.51 497.216 1745.81C493.541 1748.1 489.308 1749.25 484.517 1749.25C477.299 1749.25 471.442 1746.74 466.946 1741.72C462.484 1736.7 460.253 1730.06 460.253 1721.79V1721.15ZM469.407 1722.23C469.407 1728.14 470.769 1732.88 473.492 1736.46C476.249 1740.03 479.924 1741.82 484.517 1741.82C489.144 1741.82 492.819 1740.02 495.542 1736.41C498.266 1732.77 499.628 1727.68 499.628 1721.15C499.628 1715.31 498.233 1710.58 495.444 1706.97C492.688 1703.33 489.013 1701.51 484.419 1701.51C479.924 1701.51 476.298 1703.3 473.542 1706.88C470.785 1710.45 469.407 1715.57 469.407 1722.23ZM528.765 1695.01L529.06 1701.71C533.129 1696.59 538.445 1694.03 545.007 1694.03C556.262 1694.03 561.939 1700.38 562.037 1713.08V1748.27H552.932V1713.03C552.899 1709.19 552.013 1706.35 550.274 1704.51C548.567 1702.68 545.893 1701.76 542.251 1701.76C539.298 1701.76 536.706 1702.54 534.474 1704.12C532.243 1705.69 530.504 1707.76 529.257 1710.32V1748.27H520.152V1695.01H528.765ZM588.123 1682.12V1695.01H598.065V1702.05H588.123V1735.08C588.123 1737.21 588.566 1738.82 589.452 1739.9C590.338 1740.95 591.847 1741.48 593.98 1741.48C595.03 1741.48 596.474 1741.28 598.311 1740.89V1748.27C595.916 1748.93 593.586 1749.25 591.322 1749.25C587.253 1749.25 584.185 1748.02 582.118 1745.56C580.051 1743.1 579.018 1739.61 579.018 1735.08V1702.05H569.321V1695.01H579.018V1682.12H588.123ZM627.695 1721.54H603.676V1714.11H627.695V1721.54ZM678.538 1715.14H647.481V1740.54H683.558V1748.27H638.031V1676.61H683.066V1684.38H647.481V1707.42H678.538V1715.14ZM702.508 1695.01L702.803 1701.71C706.872 1696.59 712.187 1694.03 718.75 1694.03C730.004 1694.03 735.681 1700.38 735.779 1713.08V1748.27H726.674V1713.03C726.641 1709.19 725.755 1706.35 724.016 1704.51C722.31 1702.68 719.636 1701.76 715.993 1701.76C713.04 1701.76 710.448 1702.54 708.217 1704.12C705.986 1705.69 704.247 1707.76 703 1710.32V1748.27H693.894V1695.01H702.508ZM747.297 1721.2C747.297 1713.03 749.233 1706.47 753.104 1701.51C756.976 1696.52 762.046 1694.03 768.313 1694.03C774.547 1694.03 779.486 1696.16 783.128 1700.43V1672.67H792.233V1748.27H783.866L783.423 1742.56C779.781 1747.02 774.712 1749.25 768.215 1749.25C762.046 1749.25 757.009 1746.73 753.104 1741.67C749.233 1736.62 747.297 1730.03 747.297 1721.89V1721.2ZM756.402 1722.23C756.402 1728.27 757.649 1732.99 760.143 1736.41C762.637 1739.82 766.082 1741.53 770.479 1741.53C776.254 1741.53 780.47 1738.93 783.128 1733.75V1709.29C780.404 1704.27 776.221 1701.76 770.577 1701.76C766.115 1701.76 762.637 1703.48 760.143 1706.93C757.649 1710.37 756.402 1715.47 756.402 1722.23Z" fill="white"/>
<path d="M996.717 1530.14L1024.21 1557.63M996.717 1557.63L1024.21 1530.14" stroke="white" stroke-width="9.16365"/>
<rect x="138.936" y="1456.83" width="270.291" height="100.655" fill="black"/>
<path d="M221.248 1511.85H214.831V1526.16H206.777V1487.07H221.301C225.919 1487.07 229.481 1488.1 231.986 1490.15C234.492 1492.21 235.745 1495.12 235.745 1498.88C235.745 1501.55 235.163 1503.77 234 1505.56C232.854 1507.34 231.109 1508.75 228.765 1509.81L237.221 1525.78V1526.16H228.577L221.248 1511.85ZM214.831 1505.32H221.328C223.351 1505.32 224.917 1504.81 226.026 1503.79C227.136 1502.75 227.691 1501.33 227.691 1499.52C227.691 1497.68 227.163 1496.23 226.107 1495.17C225.069 1494.12 223.467 1493.59 221.301 1493.59H214.831V1505.32ZM254.752 1526.69C250.493 1526.69 247.02 1525.39 244.336 1522.77C241.669 1520.16 240.336 1516.68 240.336 1512.33V1511.58C240.336 1508.66 240.899 1506.06 242.027 1503.77C243.155 1501.46 244.747 1499.68 246.806 1498.45C248.882 1497.2 251.244 1496.57 253.893 1496.57C257.866 1496.57 260.99 1497.82 263.263 1500.33C265.554 1502.83 266.699 1506.39 266.699 1510.99V1514.15H248.202C248.452 1516.05 249.204 1517.57 250.457 1518.72C251.728 1519.86 253.329 1520.44 255.262 1520.44C258.251 1520.44 260.587 1519.35 262.269 1517.19L266.082 1521.46C264.918 1523.1 263.343 1524.39 261.357 1525.32C259.37 1526.24 257.168 1526.69 254.752 1526.69ZM253.866 1502.85C252.327 1502.85 251.074 1503.37 250.108 1504.41C249.159 1505.45 248.551 1506.93 248.282 1508.87H259.075V1508.25C259.039 1506.53 258.573 1505.21 257.679 1504.28C256.784 1503.33 255.513 1502.85 253.866 1502.85ZM287.962 1526.16C287.604 1525.46 287.344 1524.59 287.183 1523.55C285.304 1525.65 282.861 1526.69 279.854 1526.69C277.008 1526.69 274.646 1525.87 272.766 1524.22C270.905 1522.58 269.974 1520.5 269.974 1517.99C269.974 1514.92 271.111 1512.55 273.384 1510.91C275.675 1509.26 278.977 1508.43 283.29 1508.41H286.861V1506.75C286.861 1505.4 286.512 1504.33 285.814 1503.52C285.134 1502.72 284.051 1502.32 282.565 1502.32C281.259 1502.32 280.23 1502.63 279.478 1503.26C278.744 1503.88 278.377 1504.74 278.377 1505.83H270.619C270.619 1504.15 271.138 1502.59 272.176 1501.16C273.214 1499.73 274.681 1498.61 276.579 1497.81C278.476 1496.98 280.606 1496.57 282.968 1496.57C286.548 1496.57 289.384 1497.47 291.478 1499.28C293.59 1501.07 294.646 1503.6 294.646 1506.85V1519.44C294.664 1522.2 295.049 1524.28 295.801 1525.7V1526.16H287.962ZM281.545 1520.76C282.691 1520.76 283.747 1520.51 284.713 1520.01C285.68 1519.49 286.396 1518.8 286.861 1517.94V1512.95H283.961C280.078 1512.95 278.01 1514.29 277.76 1516.97L277.733 1517.43C277.733 1518.4 278.073 1519.19 278.753 1519.82C279.433 1520.45 280.364 1520.76 281.545 1520.76ZM312.687 1520.44C314.119 1520.44 315.282 1520.04 316.177 1519.26C317.072 1518.47 317.538 1517.42 317.573 1516.11H324.849C324.831 1518.08 324.294 1519.89 323.238 1521.54C322.182 1523.17 320.732 1524.44 318.889 1525.35C317.063 1526.24 315.041 1526.69 312.822 1526.69C308.669 1526.69 305.394 1525.38 302.996 1522.75C300.597 1520.1 299.398 1516.45 299.398 1511.79V1511.28C299.398 1506.81 300.588 1503.24 302.969 1500.57C305.349 1497.9 308.616 1496.57 312.768 1496.57C316.401 1496.57 319.309 1497.61 321.493 1499.68C323.694 1501.74 324.813 1504.49 324.849 1507.93H317.573C317.538 1506.42 317.072 1505.21 316.177 1504.28C315.282 1503.33 314.101 1502.85 312.634 1502.85C310.826 1502.85 309.457 1503.51 308.526 1504.84C307.613 1506.15 307.157 1508.28 307.157 1511.23V1512.03C307.157 1515.02 307.613 1517.17 308.526 1518.48C309.439 1519.78 310.826 1520.44 312.687 1520.44ZM338.567 1489.97V1497.11H343.534V1502.8H338.567V1517.3C338.567 1518.37 338.773 1519.14 339.185 1519.6C339.597 1520.07 340.384 1520.3 341.547 1520.3C342.407 1520.3 343.167 1520.24 343.829 1520.11V1525.99C342.308 1526.46 340.742 1526.69 339.131 1526.69C333.69 1526.69 330.916 1523.94 330.809 1518.45V1502.8H326.567V1497.11H330.809V1489.97H338.567Z" fill="white"/>
<rect x="138.936" y="1456.83" width="270.291" height="100.655" stroke="white" stroke-width="9.16365"/>
<rect x="2345.15" y="1479.82" width="944.789" height="426.11" fill="black" stroke="white" stroke-width="9.16365"/>
<path d="M2651.34 1698.08C2643.23 1695.75 2637.33 1692.9 2633.62 1689.52C2629.94 1686.1 2628.11 1681.9 2628.11 1676.92C2628.11 1671.27 2630.35 1666.61 2634.85 1662.94C2639.38 1659.23 2645.25 1657.38 2652.47 1657.38C2657.39 1657.38 2661.77 1658.33 2665.61 1660.23C2669.48 1662.14 2672.47 1664.76 2674.57 1668.11C2676.7 1671.45 2677.77 1675.11 2677.77 1679.08H2668.27C2668.27 1674.75 2666.89 1671.36 2664.13 1668.89C2661.38 1666.4 2657.49 1665.15 2652.47 1665.15C2647.81 1665.15 2644.17 1666.19 2641.54 1668.25C2638.95 1670.29 2637.65 1673.13 2637.65 1676.77C2637.65 1679.69 2638.88 1682.17 2641.35 1684.2C2643.84 1686.2 2648.06 1688.04 2653.99 1689.71C2659.97 1691.39 2664.63 1693.24 2667.97 1695.28C2671.35 1697.28 2673.85 1699.62 2675.45 1702.31C2677.09 1705 2677.92 1708.17 2677.92 1711.81C2677.92 1717.62 2675.65 1722.28 2671.12 1725.79C2666.59 1729.27 2660.54 1731.01 2652.96 1731.01C2648.04 1731.01 2643.45 1730.07 2639.18 1728.2C2634.91 1726.3 2631.62 1723.71 2629.29 1720.43C2626.99 1717.15 2625.84 1713.42 2625.84 1709.25H2635.34C2635.34 1713.59 2636.93 1717.01 2640.12 1719.54C2643.33 1722.03 2647.61 1723.28 2652.96 1723.28C2657.95 1723.28 2661.77 1722.26 2664.43 1720.23C2667.09 1718.2 2668.42 1715.42 2668.42 1711.91C2668.42 1708.4 2667.19 1705.69 2664.72 1703.79C2662.26 1701.85 2657.8 1699.95 2651.34 1698.08ZM2735.8 1717.47L2746.03 1676.77H2755.14L2739.64 1730.02H2732.25L2719.31 1689.66L2706.71 1730.02H2699.33L2683.87 1676.77H2692.93L2703.41 1716.64L2715.81 1676.77H2723.15L2735.8 1717.47ZM2797.32 1730.02C2796.8 1728.97 2796.37 1727.1 2796.04 1724.41C2791.81 1728.81 2786.75 1731.01 2780.88 1731.01C2775.63 1731.01 2771.32 1729.53 2767.94 1726.58C2764.59 1723.59 2762.92 1719.82 2762.92 1715.26C2762.92 1709.71 2765.02 1705.42 2769.22 1702.36C2773.45 1699.28 2779.39 1697.74 2787.03 1697.74H2795.89V1693.55C2795.89 1690.37 2794.94 1687.84 2793.04 1685.97C2791.13 1684.07 2788.33 1683.12 2784.62 1683.12C2781.37 1683.12 2778.65 1683.94 2776.45 1685.58C2774.25 1687.22 2773.15 1689.21 2773.15 1691.54H2764C2764 1688.88 2764.93 1686.32 2766.8 1683.86C2768.71 1681.36 2771.27 1679.39 2774.48 1677.95C2777.73 1676.51 2781.29 1675.79 2785.16 1675.79C2791.3 1675.79 2796.11 1677.33 2799.58 1680.41C2803.06 1683.46 2804.87 1687.68 2805 1693.06V1717.57C2805 1722.46 2805.62 1726.35 2806.87 1729.24V1730.02H2797.32ZM2782.21 1723.08C2785.06 1723.08 2787.77 1722.35 2790.33 1720.87C2792.89 1719.39 2794.74 1717.47 2795.89 1715.11V1704.18H2788.76C2777.6 1704.18 2772.02 1707.45 2772.02 1713.98C2772.02 1716.83 2772.97 1719.07 2774.88 1720.67C2776.78 1722.28 2779.22 1723.08 2782.21 1723.08ZM2817.11 1702.95C2817.11 1694.65 2819.03 1688.06 2822.86 1683.17C2826.7 1678.25 2831.79 1675.79 2838.12 1675.79C2844.62 1675.79 2849.69 1678.08 2853.33 1682.68L2853.77 1676.77H2862.09V1728.74C2862.09 1735.64 2860.04 1741.07 2855.94 1745.04C2851.87 1749.01 2846.39 1750.99 2839.5 1750.99C2835.66 1750.99 2831.9 1750.17 2828.23 1748.53C2824.55 1746.89 2821.75 1744.64 2819.81 1741.79L2824.54 1736.32C2828.44 1741.15 2833.22 1743.56 2838.86 1743.56C2843.29 1743.56 2846.74 1742.31 2849.2 1739.82C2851.69 1737.33 2852.94 1733.81 2852.94 1729.29V1724.71C2849.3 1728.91 2844.32 1731.01 2838.02 1731.01C2831.79 1731.01 2826.74 1728.5 2822.86 1723.48C2819.03 1718.46 2817.11 1711.62 2817.11 1702.95ZM2826.26 1703.99C2826.26 1709.99 2827.49 1714.72 2829.95 1718.16C2832.41 1721.58 2835.86 1723.28 2840.29 1723.28C2846.03 1723.28 2850.25 1720.67 2852.94 1715.46V1691.14C2850.15 1686.06 2845.96 1683.51 2840.39 1683.51C2835.96 1683.51 2832.5 1685.24 2830 1688.68C2827.51 1692.13 2826.26 1697.23 2826.26 1703.99ZM2873.71 1702.95C2873.71 1694.65 2875.63 1688.06 2879.47 1683.17C2883.31 1678.25 2888.39 1675.79 2894.72 1675.79C2901.22 1675.79 2906.29 1678.08 2909.93 1682.68L2910.38 1676.77H2918.69V1728.74C2918.69 1735.64 2916.64 1741.07 2912.54 1745.04C2908.47 1749.01 2902.99 1750.99 2896.1 1750.99C2892.26 1750.99 2888.51 1750.17 2884.83 1748.53C2881.16 1746.89 2878.35 1744.64 2876.41 1741.79L2881.14 1736.32C2885.04 1741.15 2889.82 1743.56 2895.46 1743.56C2899.89 1743.56 2903.34 1742.31 2905.8 1739.82C2908.29 1737.33 2909.54 1733.81 2909.54 1729.29V1724.71C2905.9 1728.91 2900.93 1731.01 2894.63 1731.01C2888.39 1731.01 2883.34 1728.5 2879.47 1723.48C2875.63 1718.46 2873.71 1711.62 2873.71 1702.95ZM2882.86 1703.99C2882.86 1709.99 2884.09 1714.72 2886.55 1718.16C2889.01 1721.58 2892.46 1723.28 2896.89 1723.28C2902.63 1723.28 2906.85 1720.67 2909.54 1715.46V1691.14C2906.75 1686.06 2902.57 1683.51 2896.99 1683.51C2892.56 1683.51 2889.1 1685.24 2886.6 1688.68C2884.11 1692.13 2882.86 1697.23 2882.86 1703.99ZM2954.57 1731.01C2947.36 1731.01 2941.48 1728.65 2936.95 1723.92C2932.43 1719.16 2930.16 1712.81 2930.16 1704.87V1703.2C2930.16 1697.92 2931.16 1693.21 2933.16 1689.07C2935.2 1684.91 2938.02 1681.66 2941.63 1679.33C2945.27 1676.97 2949.21 1675.79 2953.44 1675.79C2960.37 1675.79 2965.75 1678.07 2969.59 1682.63C2973.42 1687.19 2975.34 1693.72 2975.34 1702.22V1706.01H2939.27C2939.4 1711.26 2940.92 1715.5 2943.84 1718.75C2946.8 1721.97 2950.54 1723.58 2955.07 1723.58C2958.28 1723.58 2961.01 1722.92 2963.24 1721.61C2965.47 1720.3 2967.42 1718.56 2969.09 1716.39L2974.66 1720.72C2970.19 1727.58 2963.5 1731.01 2954.57 1731.01ZM2953.44 1683.27C2949.77 1683.27 2946.68 1684.61 2944.19 1687.3C2941.7 1689.96 2940.15 1693.7 2939.56 1698.52H2966.24V1697.84C2965.98 1693.21 2964.73 1689.63 2962.5 1687.11C2960.27 1684.55 2957.25 1683.27 2953.44 1683.27ZM3011.67 1684.94C3010.29 1684.71 3008.8 1684.6 3007.19 1684.6C3001.22 1684.6 2997.16 1687.14 2995.03 1692.22V1730.02H2985.93V1676.77H2994.79L2994.93 1682.92C2997.92 1678.16 3002.15 1675.79 3007.63 1675.79C3009.4 1675.79 3010.75 1676.01 3011.67 1676.47V1684.94Z" fill="white"/>
<path d="M3230.43 1511.89L3257.92 1539.38M3230.43 1539.38L3257.92 1511.89" stroke="white" stroke-width="9.16365"/>
<rect x="2372.64" y="1438.58" width="361.291" height="100.655" fill="black"/>
<path d="M2472.78 1489.25C2472.78 1493.1 2472.1 1496.47 2470.74 1499.37C2469.38 1502.27 2467.43 1504.51 2464.88 1506.09C2462.36 1507.66 2459.46 1508.45 2456.19 1508.45C2452.95 1508.45 2450.06 1507.67 2447.51 1506.11C2444.97 1504.55 2443 1502.34 2441.61 1499.45C2440.21 1496.55 2439.5 1493.23 2439.49 1489.47V1487.53C2439.49 1483.69 2440.18 1480.3 2441.55 1477.39C2442.95 1474.45 2444.91 1472.2 2447.43 1470.65C2449.98 1469.07 2452.87 1468.29 2456.13 1468.29C2459.39 1468.29 2462.28 1469.07 2464.8 1470.65C2467.34 1472.2 2469.3 1474.45 2470.68 1477.39C2472.08 1480.3 2472.78 1483.68 2472.78 1487.51V1489.25ZM2464.62 1487.48C2464.62 1483.38 2463.88 1480.27 2462.41 1478.14C2460.95 1476.01 2458.85 1474.94 2456.13 1474.94C2453.43 1474.94 2451.34 1476 2449.88 1478.11C2448.41 1480.2 2447.67 1483.28 2447.65 1487.35V1489.25C2447.65 1493.24 2448.38 1496.34 2449.85 1498.54C2451.32 1500.74 2453.43 1501.84 2456.19 1501.84C2458.89 1501.84 2460.96 1500.79 2462.41 1498.68C2463.86 1496.55 2464.6 1493.45 2464.62 1489.39V1487.48ZM2486.68 1494.14V1507.91H2478.63V1468.82H2493.88C2496.81 1468.82 2499.39 1469.36 2501.61 1470.43C2503.85 1471.51 2505.57 1473.04 2506.76 1475.02C2507.96 1476.99 2508.56 1479.24 2508.56 1481.76C2508.56 1485.59 2507.25 1488.62 2504.62 1490.84C2502 1493.04 2498.38 1494.14 2493.74 1494.14H2486.68ZM2486.68 1487.61H2493.88C2496.01 1487.61 2497.63 1487.11 2498.74 1486.11C2499.87 1485.11 2500.43 1483.68 2500.43 1481.82C2500.43 1479.9 2499.87 1478.35 2498.74 1477.17C2497.61 1475.99 2496.05 1475.38 2494.07 1475.35H2486.68V1487.61ZM2537.64 1490.97H2522.17V1501.44H2540.32V1507.91H2514.12V1468.82H2540.27V1475.35H2522.17V1484.66H2537.64V1490.97ZM2576.83 1507.91H2568.78L2553.1 1482.19V1507.91H2545.05V1468.82H2553.1L2568.81 1494.59V1468.82H2576.83V1507.91ZM2606.42 1499.86H2592.3L2589.61 1507.91H2581.05L2595.6 1468.82H2603.06L2617.69 1507.91H2609.13L2606.42 1499.86ZM2594.47 1493.33H2604.24L2599.33 1478.7L2594.47 1493.33ZM2629.4 1494.14V1507.91H2621.35V1468.82H2636.59C2639.53 1468.82 2642.11 1469.36 2644.33 1470.43C2646.56 1471.51 2648.28 1473.04 2649.48 1475.02C2650.68 1476.99 2651.28 1479.24 2651.28 1481.76C2651.28 1485.59 2649.96 1488.62 2647.33 1490.84C2644.72 1493.04 2641.1 1494.14 2636.46 1494.14H2629.4ZM2629.4 1487.61H2636.59C2638.72 1487.61 2640.34 1487.11 2641.45 1486.11C2642.58 1485.11 2643.15 1483.68 2643.15 1481.82C2643.15 1479.9 2642.58 1478.35 2641.45 1477.17C2640.33 1475.99 2638.77 1475.38 2636.78 1475.35H2629.4V1487.61ZM2665.4 1507.91H2657.35V1468.82H2665.4V1507.91Z" fill="white"/>
<rect x="2372.64" y="1438.58" width="361.291" height="100.655" stroke="white" stroke-width="9.16365"/>
<rect x="4594.5" y="1461.57" width="944.789" height="426.11" fill="black" stroke="white" stroke-width="9.16365"/>
<path d="M4954.28 1679.84C4946.18 1677.51 4940.27 1674.65 4936.56 1671.27C4932.89 1667.86 4931.05 1663.66 4931.05 1658.67C4931.05 1653.03 4933.3 1648.37 4937.79 1644.69C4942.32 1640.99 4948.2 1639.13 4955.41 1639.13C4960.34 1639.13 4964.72 1640.08 4968.56 1641.99C4972.43 1643.89 4975.41 1646.52 4977.51 1649.86C4979.65 1653.21 4980.71 1656.87 4980.71 1660.84H4971.21C4971.21 1656.51 4969.84 1653.11 4967.08 1650.65C4964.32 1648.16 4960.44 1646.91 4955.41 1646.91C4950.76 1646.91 4947.11 1647.94 4944.49 1650.01C4941.9 1652.04 4940.6 1654.88 4940.6 1658.52C4940.6 1661.44 4941.83 1663.92 4944.29 1665.96C4946.79 1667.96 4951 1669.8 4956.94 1671.47C4962.91 1673.14 4967.57 1675 4970.92 1677.03C4974.3 1679.03 4976.79 1681.38 4978.4 1684.07C4980.04 1686.76 4980.86 1689.93 4980.86 1693.57C4980.86 1699.38 4978.6 1704.04 4974.07 1707.55C4969.54 1711.02 4963.49 1712.76 4955.91 1712.76C4950.99 1712.76 4946.39 1711.83 4942.13 1709.96C4937.86 1708.06 4934.56 1705.46 4932.23 1702.18C4929.94 1698.9 4928.79 1695.18 4928.79 1691.01H4938.29C4938.29 1695.34 4939.88 1698.77 4943.06 1701.3C4946.28 1703.79 4950.56 1705.04 4955.91 1705.04C4960.89 1705.04 4964.72 1704.02 4967.37 1701.98C4970.03 1699.95 4971.36 1697.18 4971.36 1693.67C4971.36 1690.16 4970.13 1687.45 4967.67 1685.55C4965.21 1683.61 4960.75 1681.71 4954.28 1679.84ZM5013.69 1712.76C5006.47 1712.76 5000.6 1710.4 4996.07 1705.68C4991.54 1700.92 4989.28 1694.57 4989.28 1686.63V1684.96C4989.28 1679.67 4990.28 1674.96 4992.28 1670.83C4994.31 1666.66 4997.14 1663.41 5000.75 1661.08C5004.39 1658.72 5008.33 1657.54 5012.56 1657.54C5019.48 1657.54 5024.86 1659.82 5028.7 1664.38C5032.54 1668.94 5034.46 1675.47 5034.46 1683.97V1687.76H4998.38C4998.51 1693.01 5000.04 1697.26 5002.96 1700.51C5005.91 1703.72 5009.65 1705.33 5014.18 1705.33C5017.4 1705.33 5020.12 1704.68 5022.35 1703.36C5024.58 1702.05 5026.54 1700.31 5028.21 1698.15L5033.77 1702.48C5029.31 1709.33 5022.61 1712.76 5013.69 1712.76ZM5012.56 1665.02C5008.88 1665.02 5005.8 1666.37 5003.3 1669.06C5000.81 1671.72 4999.27 1675.46 4998.68 1680.28H5025.35V1679.59C5025.09 1674.96 5023.85 1671.39 5021.61 1668.86C5019.38 1666.3 5016.36 1665.02 5012.56 1665.02ZM5070.78 1666.69C5069.41 1666.47 5067.91 1666.35 5066.3 1666.35C5060.33 1666.35 5056.28 1668.89 5054.15 1673.98V1711.78H5045.04V1658.52H5053.9L5054.05 1664.68C5057.04 1659.92 5061.27 1657.54 5066.75 1657.54C5068.52 1657.54 5069.86 1657.77 5070.78 1658.23V1666.69ZM5097.66 1699.43L5110.85 1658.52H5120.15L5101.05 1711.78H5094.11L5074.82 1658.52H5084.12L5097.66 1699.43ZM5150.32 1712.76C5143.1 1712.76 5137.23 1710.4 5132.7 1705.68C5128.17 1700.92 5125.91 1694.57 5125.91 1686.63V1684.96C5125.91 1679.67 5126.91 1674.96 5128.91 1670.83C5130.95 1666.66 5133.77 1663.41 5137.38 1661.08C5141.02 1658.72 5144.96 1657.54 5149.19 1657.54C5156.11 1657.54 5161.49 1659.82 5165.33 1664.38C5169.17 1668.94 5171.09 1675.47 5171.09 1683.97V1687.76H5135.01C5135.15 1693.01 5136.67 1697.26 5139.59 1700.51C5142.54 1703.72 5146.29 1705.33 5150.81 1705.33C5154.03 1705.33 5156.75 1704.68 5158.98 1703.36C5161.22 1702.05 5163.17 1700.31 5164.84 1698.15L5170.4 1702.48C5165.94 1709.33 5159.25 1712.76 5150.32 1712.76ZM5149.19 1665.02C5145.51 1665.02 5142.43 1666.37 5139.94 1669.06C5137.44 1671.72 5135.9 1675.46 5135.31 1680.28H5161.99V1679.59C5161.72 1674.96 5160.48 1671.39 5158.25 1668.86C5156.01 1666.3 5153 1665.02 5149.19 1665.02ZM5207.42 1666.69C5206.04 1666.47 5204.54 1666.35 5202.94 1666.35C5196.96 1666.35 5192.91 1668.89 5190.78 1673.98V1711.78H5181.67V1658.52H5190.53L5190.68 1664.68C5193.67 1659.92 5197.9 1657.54 5203.38 1657.54C5205.15 1657.54 5206.5 1657.77 5207.42 1658.23V1666.69Z" fill="white"/>
<path d="M5479.77 1493.65L5507.26 1521.14M5479.77 1521.14L5507.26 1493.65" stroke="white" stroke-width="9.16365"/>
<rect x="4621.99" y="1420.34" width="324.291" height="100.655" fill="black"/>
<path d="M4713.26 1472.73H4697.8V1483.2H4715.95V1489.67H4689.74V1450.58H4715.89V1457.1H4697.8V1466.42H4713.26V1472.73ZM4731.22 1469.29L4736.11 1460.62H4744.4L4736.13 1474.85L4744.75 1489.67H4736.43L4731.25 1480.54L4726.09 1489.67H4717.74L4726.36 1474.85L4718.12 1460.62H4726.44L4731.22 1469.29ZM4774.28 1475.41C4774.28 1479.88 4773.26 1483.47 4771.22 1486.18C4769.2 1488.86 4766.46 1490.2 4763.01 1490.2C4760.07 1490.2 4757.7 1489.18 4755.89 1487.14V1500.83H4748.13V1460.62H4755.33L4755.6 1463.46C4757.48 1461.21 4759.93 1460.08 4762.95 1460.08C4766.53 1460.08 4769.32 1461.4 4771.3 1464.05C4773.29 1466.7 4774.28 1470.35 4774.28 1475.01V1475.41ZM4766.52 1474.85C4766.52 1472.14 4766.04 1470.06 4765.08 1468.59C4764.13 1467.12 4762.74 1466.39 4760.91 1466.39C4758.48 1466.39 4756.81 1467.32 4755.89 1469.18V1481.07C4756.84 1482.99 4758.53 1483.95 4760.97 1483.95C4764.67 1483.95 4766.52 1480.91 4766.52 1474.85ZM4795.44 1467.89C4794.38 1467.75 4793.45 1467.68 4792.65 1467.68C4789.71 1467.68 4787.79 1468.67 4786.87 1470.66V1489.67H4779.12V1460.62H4786.45L4786.66 1464.08C4788.22 1461.41 4790.37 1460.08 4793.13 1460.08C4793.99 1460.08 4794.79 1460.2 4795.55 1460.43L4795.44 1467.89ZM4812.03 1490.2C4807.77 1490.2 4804.3 1488.9 4801.61 1486.28C4798.95 1483.67 4797.61 1480.19 4797.61 1475.84V1475.09C4797.61 1472.17 4798.18 1469.57 4799.3 1467.28C4800.43 1464.97 4802.03 1463.19 4804.08 1461.96C4806.16 1460.71 4808.52 1460.08 4811.17 1460.08C4815.14 1460.08 4818.27 1461.33 4820.54 1463.84C4822.83 1466.34 4823.98 1469.9 4823.98 1474.5V1477.67H4805.48C4805.73 1479.56 4806.48 1481.08 4807.73 1482.23C4809.01 1483.37 4810.61 1483.95 4812.54 1483.95C4815.53 1483.95 4817.86 1482.86 4819.55 1480.7L4823.36 1484.97C4822.2 1486.61 4820.62 1487.9 4818.63 1488.83C4816.65 1489.75 4814.45 1490.2 4812.03 1490.2ZM4811.14 1466.36C4809.6 1466.36 4808.35 1466.88 4807.39 1467.92C4806.44 1468.96 4805.83 1470.44 4805.56 1472.38H4816.35V1471.76C4816.32 1470.04 4815.85 1468.72 4814.96 1467.79C4814.06 1466.84 4812.79 1466.36 4811.14 1466.36ZM4844.14 1481.64C4844.14 1480.69 4843.66 1479.95 4842.72 1479.41C4841.78 1478.86 4840.28 1478.36 4838.21 1477.93C4831.3 1476.48 4827.84 1473.55 4827.84 1469.13C4827.84 1466.55 4828.91 1464.4 4831.04 1462.68C4833.19 1460.95 4835.99 1460.08 4839.44 1460.08C4843.13 1460.08 4846.07 1460.95 4848.27 1462.68C4850.49 1464.42 4851.6 1466.68 4851.6 1469.45H4843.84C4843.84 1468.34 4843.49 1467.43 4842.77 1466.71C4842.05 1465.98 4840.93 1465.61 4839.41 1465.61C4838.11 1465.61 4837.1 1465.91 4836.38 1466.5C4835.66 1467.09 4835.31 1467.84 4835.31 1468.75C4835.31 1469.61 4835.71 1470.31 4836.51 1470.85C4837.34 1471.37 4838.72 1471.82 4840.65 1472.22C4842.58 1472.59 4844.21 1473.02 4845.53 1473.5C4849.63 1475.01 4851.68 1477.61 4851.68 1481.32C4851.68 1483.97 4850.55 1486.11 4848.27 1487.76C4846 1489.39 4843.06 1490.2 4839.47 1490.2C4837.03 1490.2 4834.87 1489.77 4832.97 1488.91C4831.09 1488.04 4829.61 1486.85 4828.54 1485.34C4827.47 1483.82 4826.93 1482.18 4826.93 1480.43H4834.29C4834.36 1481.81 4834.87 1482.86 4835.82 1483.6C4836.76 1484.33 4838.04 1484.7 4839.63 1484.7C4841.11 1484.7 4842.23 1484.42 4842.98 1483.87C4843.75 1483.29 4844.14 1482.55 4844.14 1481.64ZM4872.43 1481.64C4872.43 1480.69 4871.96 1479.95 4871.01 1479.41C4870.08 1478.86 4868.58 1478.36 4866.5 1477.93C4859.59 1476.48 4856.14 1473.55 4856.14 1469.13C4856.14 1466.55 4857.2 1464.4 4859.33 1462.68C4861.48 1460.95 4864.28 1460.08 4867.74 1460.08C4871.42 1460.08 4874.37 1460.95 4876.57 1462.68C4878.79 1464.42 4879.9 1466.68 4879.9 1469.45H4872.14C4872.14 1468.34 4871.78 1467.43 4871.07 1466.71C4870.35 1465.98 4869.23 1465.61 4867.71 1465.61C4866.4 1465.61 4865.39 1465.91 4864.68 1466.5C4863.96 1467.09 4863.6 1467.84 4863.6 1468.75C4863.6 1469.61 4864 1470.31 4864.81 1470.85C4865.63 1471.37 4867.01 1471.82 4868.94 1472.22C4870.88 1472.59 4872.51 1473.02 4873.83 1473.5C4877.93 1475.01 4879.98 1477.61 4879.98 1481.32C4879.98 1483.97 4878.84 1486.11 4876.57 1487.76C4874.3 1489.39 4871.36 1490.2 4867.76 1490.2C4865.33 1490.2 4863.16 1489.77 4861.27 1488.91C4859.39 1488.04 4857.91 1486.85 4856.84 1485.34C4855.76 1483.82 4855.23 1482.18 4855.23 1480.43H4862.58C4862.65 1481.81 4863.16 1482.86 4864.11 1483.6C4865.06 1484.33 4866.33 1484.7 4867.92 1484.7C4869.41 1484.7 4870.53 1484.42 4871.28 1483.87C4872.05 1483.29 4872.43 1482.55 4872.43 1481.64Z" fill="white"/>
<rect x="4621.99" y="1420.34" width="324.291" height="100.655" stroke="white" stroke-width="9.16365"/>
<path fill-rule="evenodd" clip-rule="evenodd" d="M1295.25 1725.71H2330.15V1720.5H1295.39C1295.39 1720.85 1295.39 1721.2 1295.39 1721.54C1295.39 1722.95 1295.35 1724.33 1295.25 1725.71ZM1173.03 1725.71C1172.94 1724.33 1172.89 1722.95 1172.89 1721.54C1172.89 1721.2 1172.9 1720.85 1172.9 1720.5L1060.82 1720.5V1725.71L1173.03 1725.71Z" fill="black"/>
<path d="M2269.87 1660.55L2332.42 1723.1L2269.87 1785.66" stroke="black" stroke-width="5.21285"/>
<circle cx="1234.14" cy="1721.54" r="50.8253" stroke="black" stroke-width="5.21285"/>
<path d="M1209.38 1722.85L1225.02 1738.49L1256.3 1707.21" stroke="black" stroke-width="5.21285"/>
<rect width="610.771" height="224.386" transform="translate(1180.71 1602.95)" fill="#003245"/>
<path d="M1364.22 1725.75H1349.49L1346.69 1734.15H1337.76L1352.94 1693.38H1360.72L1375.98 1734.15H1367.05L1364.22 1725.75ZM1351.76 1718.94H1361.95L1356.83 1703.68L1351.76 1718.94ZM1388.19 1719.78V1734.15H1379.79V1693.38H1395.69C1398.75 1693.38 1401.44 1693.94 1403.75 1695.06C1406.09 1696.18 1407.88 1697.77 1409.13 1699.85C1410.38 1701.9 1411 1704.24 1411 1706.87C1411 1710.87 1409.63 1714.02 1406.89 1716.34C1404.16 1718.63 1400.38 1719.78 1395.55 1719.78H1388.19ZM1388.19 1712.98H1395.69C1397.91 1712.98 1399.6 1712.46 1400.76 1711.41C1401.93 1710.36 1402.52 1708.87 1402.52 1706.93C1402.52 1704.93 1401.93 1703.32 1400.76 1702.09C1399.58 1700.85 1397.96 1700.22 1395.89 1700.18H1388.19V1712.98ZM1425.73 1734.15H1417.33V1693.38H1425.73V1734.15ZM1458.8 1693.38L1469.27 1722.95L1479.69 1693.38H1490.72V1734.15H1482.29V1723L1483.13 1703.77L1472.13 1734.15H1466.36L1455.38 1703.79L1456.22 1723V1734.15H1447.82V1693.38H1458.8ZM1531.54 1714.69C1531.54 1718.7 1530.83 1722.22 1529.41 1725.24C1527.99 1728.27 1525.96 1730.6 1523.31 1732.24C1520.68 1733.88 1517.65 1734.7 1514.24 1734.7C1510.86 1734.7 1507.84 1733.89 1505.19 1732.27C1502.54 1730.65 1500.49 1728.33 1499.03 1725.33C1497.58 1722.3 1496.84 1718.83 1496.82 1714.91V1712.89C1496.82 1708.88 1497.54 1705.35 1498.98 1702.31C1500.43 1699.25 1502.48 1696.91 1505.11 1695.28C1507.76 1693.64 1510.78 1692.82 1514.18 1692.82C1517.58 1692.82 1520.59 1693.64 1523.22 1695.28C1525.87 1696.91 1527.92 1699.25 1529.36 1702.31C1530.81 1705.35 1531.54 1708.87 1531.54 1712.87V1714.69ZM1523.03 1712.84C1523.03 1708.56 1522.26 1705.32 1520.73 1703.09C1519.2 1700.87 1517.02 1699.76 1514.18 1699.76C1511.36 1699.76 1509.19 1700.86 1507.66 1703.07C1506.13 1705.25 1505.35 1708.46 1505.33 1712.7V1714.69C1505.33 1718.85 1506.1 1722.08 1507.63 1724.37C1509.16 1726.67 1511.36 1727.82 1514.24 1727.82C1517.05 1727.82 1519.22 1726.72 1520.73 1724.51C1522.24 1722.29 1523.01 1719.06 1523.03 1714.83V1712.84ZM1537.64 1734.15V1693.38H1550.19C1553.77 1693.38 1556.97 1694.19 1559.79 1695.81C1562.63 1697.42 1564.84 1699.72 1566.43 1702.7C1568.01 1705.67 1568.81 1709.05 1568.81 1712.84V1714.71C1568.81 1718.5 1568.02 1721.87 1566.45 1724.82C1564.9 1727.77 1562.71 1730.06 1559.87 1731.68C1557.04 1733.31 1553.84 1734.13 1550.27 1734.15H1537.64ZM1546.04 1700.18V1727.4H1550.1C1553.39 1727.4 1555.9 1726.32 1557.63 1724.18C1559.37 1722.03 1560.26 1718.96 1560.29 1714.97V1712.81C1560.29 1708.67 1559.44 1705.53 1557.72 1703.4C1556 1701.26 1553.49 1700.18 1550.19 1700.18H1546.04ZM1599.46 1716.48H1583.34V1727.4H1602.26V1734.15H1574.94V1693.38H1602.21V1700.18H1583.34V1709.9H1599.46V1716.48ZM1615.59 1727.4H1633.43V1734.15H1607.19V1693.38H1615.59V1727.4Z" fill="white"/>
<path fill-rule="evenodd" clip-rule="evenodd" d="M4355.48 1710.07H3320.59V1704.86H4355.35C4355.34 1705.21 4355.34 1705.56 4355.34 1705.91C4355.34 1707.31 4355.39 1708.7 4355.48 1710.07ZM4477.7 1710.07C4477.79 1708.7 4477.84 1707.31 4477.84 1705.91C4477.84 1705.56 4477.84 1705.21 4477.83 1704.86H4589.92V1710.07H4477.7Z" fill="black"/>
<path d="M3380.87 1644.91L3318.31 1707.47L3380.87 1770.02" stroke="black" stroke-width="5.21285"/>
<circle r="50.8253" transform="matrix(-1 0 0 1 4416.59 1705.91)" stroke="black" stroke-width="5.21285"/>
<path d="M4441.35 1707.21L4425.71 1722.85L4394.44 1691.57" stroke="black" stroke-width="5.21285"/>
<rect width="610.771" height="224.386" transform="translate(3859.59 1587.31)" fill="#003245"/>
<path d="M4043.09 1710.11H4028.37L4025.57 1718.51H4016.63L4031.81 1677.74H4039.59L4054.85 1718.51H4045.92L4043.09 1710.11ZM4030.63 1703.3H4040.83L4035.7 1688.04L4030.63 1703.3ZM4067.06 1704.14V1718.51H4058.66V1677.74H4074.56C4077.62 1677.74 4080.31 1678.3 4082.63 1679.42C4084.96 1680.54 4086.75 1682.14 4088 1684.21C4089.25 1686.26 4089.88 1688.6 4089.88 1691.24C4089.88 1695.23 4088.51 1698.39 4085.76 1700.7C4083.04 1703 4079.26 1704.14 4074.42 1704.14H4067.06ZM4067.06 1697.34H4074.56C4076.79 1697.34 4078.47 1696.82 4079.63 1695.77C4080.81 1694.73 4081.4 1693.23 4081.4 1691.29C4081.4 1689.29 4080.81 1687.68 4079.63 1686.45C4078.46 1685.22 4076.83 1684.58 4074.76 1684.54H4067.06V1697.34ZM4104.61 1718.51H4096.21V1677.74H4104.61V1718.51ZM4137.67 1677.74L4148.14 1707.31L4158.56 1677.74H4169.59V1718.51H4161.16V1707.36L4162 1688.13L4151 1718.51H4145.23L4134.26 1688.16L4135.1 1707.36V1718.51H4126.7V1677.74H4137.67ZM4210.41 1699.05C4210.41 1703.06 4209.7 1706.58 4208.29 1709.6C4206.87 1712.63 4204.83 1714.96 4202.18 1716.6C4199.55 1718.25 4196.53 1719.07 4193.11 1719.07C4189.73 1719.07 4186.72 1718.25 4184.07 1716.63C4181.42 1715.01 4179.36 1712.69 4177.91 1709.69C4176.45 1706.66 4175.71 1703.19 4175.7 1699.27V1697.26C4175.7 1693.24 4176.41 1689.71 4177.85 1686.67C4179.31 1683.61 4181.35 1681.27 4183.98 1679.64C4186.63 1678 4189.66 1677.18 4193.05 1677.18C4196.45 1677.18 4199.47 1678 4202.1 1679.64C4204.75 1681.27 4206.79 1683.61 4208.23 1686.67C4209.69 1689.71 4210.41 1693.23 4210.41 1697.23V1699.05ZM4201.9 1697.2C4201.9 1692.93 4201.14 1689.68 4199.61 1687.46C4198.08 1685.24 4195.89 1684.12 4193.05 1684.12C4190.24 1684.12 4188.06 1685.23 4186.53 1687.43C4185 1689.61 4184.23 1692.82 4184.21 1697.06V1699.05C4184.21 1703.21 4184.97 1706.44 4186.5 1708.74C4188.03 1711.03 4190.24 1712.18 4193.11 1712.18C4195.93 1712.18 4198.09 1711.08 4199.61 1708.88C4201.12 1706.65 4201.88 1703.42 4201.9 1699.19V1697.2ZM4216.52 1718.51V1677.74H4229.06C4232.64 1677.74 4235.85 1678.55 4238.66 1680.18C4241.5 1681.78 4243.71 1684.08 4245.3 1687.06C4246.89 1690.03 4247.68 1693.41 4247.68 1697.2V1699.08C4247.68 1702.86 4246.9 1706.23 4245.33 1709.18C4243.78 1712.13 4241.59 1714.42 4238.75 1716.04C4235.91 1717.67 4232.71 1718.49 4229.14 1718.51H4216.52ZM4224.92 1684.54V1711.76H4228.98C4232.26 1711.76 4234.77 1710.69 4236.51 1708.54C4238.24 1706.39 4239.13 1703.32 4239.17 1699.33V1697.17C4239.17 1693.03 4238.31 1689.89 4236.59 1687.76C4234.88 1685.62 4232.36 1684.54 4229.06 1684.54H4224.92ZM4278.34 1700.84H4262.21V1711.76H4281.14V1718.51H4253.81V1677.74H4281.08V1684.54H4262.21V1694.26H4278.34V1700.84ZM4294.47 1711.76H4312.3V1718.51H4286.07V1677.74H4294.47V1711.76Z" fill="white"/>
<path d="M5132.05 1438.75V1196.35C5132.05 1153.17 5097.05 1118.16 5053.86 1118.16L2907.47 1118.16L761.077 1118.16C717.892 1118.16 682.884 1153.17 682.884 1196.35V1468.72" stroke="black" stroke-width="5.21285"/>
<path d="M2365.88 1218.16L2389.88 1242.16L2413.88 1218.16" stroke="black" stroke-width="2"/>
<circle r="13.0321" transform="matrix(0 1 1 0 682.884 1480.45)" fill="black"/>
<rect width="740.872" height="285.936" transform="translate(2512.2 985.229)" fill="#003245"/>
<path d="M2732.51 1145.57C2734.42 1145.57 2735.97 1145.05 2737.16 1144C2738.35 1142.95 2738.98 1141.55 2739.02 1139.81H2748.72C2748.7 1142.43 2747.98 1144.84 2746.58 1147.04C2745.17 1149.21 2743.23 1150.91 2740.78 1152.12C2738.34 1153.32 2735.65 1153.91 2732.69 1153.91C2727.15 1153.91 2722.78 1152.16 2719.59 1148.65C2716.39 1145.12 2714.79 1140.25 2714.79 1134.05V1133.37C2714.79 1127.4 2716.38 1122.64 2719.55 1119.08C2722.72 1115.53 2727.08 1113.75 2732.62 1113.75C2737.46 1113.75 2741.34 1115.13 2744.25 1117.9C2747.18 1120.65 2748.68 1124.31 2748.72 1128.89H2739.02C2738.98 1126.89 2738.35 1125.26 2737.16 1124.02C2735.97 1122.76 2734.39 1122.13 2732.44 1122.13C2730.03 1122.13 2728.2 1123.01 2726.96 1124.78C2725.74 1126.52 2725.13 1129.36 2725.13 1133.29V1134.37C2725.13 1138.35 2725.74 1141.22 2726.96 1142.96C2728.18 1144.7 2730.03 1145.57 2732.51 1145.57ZM2753.02 1133.47C2753.02 1129.63 2753.76 1126.21 2755.24 1123.2C2756.72 1120.19 2758.84 1117.87 2761.61 1116.22C2764.4 1114.57 2767.64 1113.75 2771.31 1113.75C2776.54 1113.75 2780.8 1115.35 2784.09 1118.55C2787.41 1121.74 2789.26 1126.09 2789.64 1131.58L2789.71 1134.23C2789.71 1140.17 2788.05 1144.94 2784.73 1148.54C2781.42 1152.12 2776.97 1153.91 2771.38 1153.91C2765.8 1153.91 2761.34 1152.12 2757.99 1148.54C2754.68 1144.96 2753.02 1140.1 2753.02 1133.94V1133.47ZM2763.36 1134.23C2763.36 1137.9 2764.06 1140.72 2765.44 1142.67C2766.82 1144.61 2768.8 1145.57 2771.38 1145.57C2773.89 1145.57 2775.84 1144.62 2777.25 1142.71C2778.66 1140.78 2779.36 1137.7 2779.36 1133.47C2779.36 1129.87 2778.66 1127.08 2777.25 1125.1C2775.84 1123.12 2773.86 1122.13 2771.31 1122.13C2768.78 1122.13 2766.82 1123.12 2765.44 1125.1C2764.06 1127.05 2763.36 1130.1 2763.36 1134.23ZM2805.6 1114.47L2805.93 1118.94C2808.69 1115.48 2812.4 1113.75 2817.06 1113.75C2821.16 1113.75 2824.22 1114.96 2826.22 1117.37C2828.23 1119.78 2829.25 1123.38 2829.3 1128.18V1153.2H2818.95V1128.43C2818.95 1126.23 2818.48 1124.64 2817.52 1123.67C2816.57 1122.66 2814.98 1122.16 2812.76 1122.16C2809.85 1122.16 2807.67 1123.4 2806.21 1125.89V1153.2H2795.87V1114.47H2805.6ZM2858.15 1142.49C2858.15 1141.23 2857.52 1140.24 2856.25 1139.52C2855.01 1138.78 2853.01 1138.13 2850.24 1137.55C2841.03 1135.62 2836.42 1131.71 2836.42 1125.81C2836.42 1122.38 2837.84 1119.51 2840.68 1117.22C2843.55 1114.91 2847.28 1113.75 2851.89 1113.75C2856.8 1113.75 2860.73 1114.91 2863.66 1117.22C2866.62 1119.54 2868.1 1122.54 2868.1 1126.24H2857.76C2857.76 1124.76 2857.28 1123.55 2856.33 1122.59C2855.37 1121.61 2853.88 1121.12 2851.85 1121.12C2850.11 1121.12 2848.76 1121.52 2847.81 1122.31C2846.85 1123.09 2846.37 1124.1 2846.37 1125.31C2846.37 1126.46 2846.91 1127.39 2847.99 1128.1C2849.08 1128.8 2850.92 1129.4 2853.5 1129.93C2856.08 1130.43 2858.25 1131 2860.01 1131.65C2865.48 1133.65 2868.21 1137.12 2868.21 1142.06C2868.21 1145.6 2866.69 1148.46 2863.66 1150.66C2860.63 1152.83 2856.72 1153.91 2851.92 1153.91C2848.68 1153.91 2845.79 1153.34 2843.26 1152.19C2840.75 1151.03 2838.79 1149.44 2837.35 1147.43C2835.92 1145.41 2835.21 1143.22 2835.21 1140.88H2845.01C2845.11 1142.72 2845.79 1144.13 2847.05 1145.11C2848.32 1146.09 2850.01 1146.58 2852.14 1146.58C2854.12 1146.58 2855.61 1146.21 2856.61 1145.47C2857.64 1144.7 2858.15 1143.71 2858.15 1142.49ZM2898.1 1149.26C2895.55 1152.36 2892.01 1153.91 2887.5 1153.91C2883.35 1153.91 2880.18 1152.72 2877.98 1150.33C2875.81 1147.95 2874.7 1144.45 2874.65 1139.85V1114.47H2885V1139.49C2885 1143.52 2886.84 1145.54 2890.51 1145.54C2894.02 1145.54 2896.43 1144.32 2897.74 1141.89V1114.47H2908.12V1153.2H2898.39L2898.1 1149.26ZM2925.63 1114.47L2925.95 1118.8C2928.69 1115.43 2932.4 1113.75 2937.08 1113.75C2942.07 1113.75 2945.49 1115.72 2947.35 1119.66C2950.08 1115.72 2953.95 1113.75 2958.99 1113.75C2963.19 1113.75 2966.31 1114.98 2968.37 1117.44C2970.42 1119.87 2971.45 1123.55 2971.45 1128.46V1153.2H2961.06V1128.5C2961.06 1126.3 2960.63 1124.7 2959.78 1123.7C2958.92 1122.68 2957.4 1122.16 2955.23 1122.16C2952.13 1122.16 2949.98 1123.64 2948.79 1126.6L2948.82 1153.2H2938.48V1128.53C2938.48 1126.29 2938.04 1124.67 2937.15 1123.67C2936.27 1122.66 2934.77 1122.16 2932.64 1122.16C2929.71 1122.16 2927.58 1123.38 2926.27 1125.81V1153.2H2915.93V1114.47H2925.63ZM2997.25 1153.91C2991.57 1153.91 2986.94 1152.17 2983.37 1148.69C2979.81 1145.2 2978.03 1140.56 2978.03 1134.76V1133.76C2978.03 1129.87 2978.78 1126.4 2980.29 1123.34C2981.79 1120.27 2983.91 1117.9 2986.66 1116.26C2989.43 1114.59 2992.58 1113.75 2996.11 1113.75C3001.41 1113.75 3005.57 1115.42 3008.6 1118.76C3011.66 1122.1 3013.18 1126.84 3013.18 1132.97V1137.2H2988.52C2988.85 1139.73 2989.86 1141.75 2991.53 1143.28C2993.22 1144.81 2995.36 1145.57 2997.93 1145.57C3001.92 1145.57 3005.03 1144.13 3007.28 1141.24L3012.36 1146.93C3010.81 1149.13 3008.71 1150.85 3006.06 1152.09C3003.41 1153.3 3000.48 1153.91 2997.25 1153.91ZM2996.07 1122.13C2994.02 1122.13 2992.35 1122.82 2991.06 1124.2C2989.8 1125.59 2988.99 1127.57 2988.63 1130.14H3003.02V1129.32C3002.97 1127.03 3002.35 1125.26 3001.16 1124.02C2999.96 1122.76 2998.27 1122.13 2996.07 1122.13ZM3040.07 1142.49C3040.07 1141.23 3039.43 1140.24 3038.17 1139.52C3036.93 1138.78 3034.92 1138.13 3032.15 1137.55C3022.94 1135.62 3018.34 1131.71 3018.34 1125.81C3018.34 1122.38 3019.76 1119.51 3022.6 1117.22C3025.46 1114.91 3029.2 1113.75 3033.8 1113.75C3038.72 1113.75 3042.64 1114.91 3045.58 1117.22C3048.54 1119.54 3050.02 1122.54 3050.02 1126.24H3039.67C3039.67 1124.76 3039.19 1123.55 3038.24 1122.59C3037.29 1121.61 3035.79 1121.12 3033.77 1121.12C3032.02 1121.12 3030.68 1121.52 3029.72 1122.31C3028.77 1123.09 3028.29 1124.1 3028.29 1125.31C3028.29 1126.46 3028.83 1127.39 3029.9 1128.1C3031 1128.8 3032.84 1129.4 3035.41 1129.93C3037.99 1130.43 3040.16 1131 3041.93 1131.65C3047.39 1133.65 3050.12 1137.12 3050.12 1142.06C3050.12 1145.6 3048.61 1148.46 3045.58 1150.66C3042.55 1152.83 3038.63 1153.91 3033.84 1153.91C3030.59 1153.91 3027.7 1153.34 3025.17 1152.19C3022.67 1151.03 3020.7 1149.44 3019.27 1147.43C3017.84 1145.41 3017.12 1143.22 3017.12 1140.88H3026.93C3027.02 1142.72 3027.7 1144.13 3028.97 1145.11C3030.23 1146.09 3031.93 1146.58 3034.05 1146.58C3036.03 1146.58 3037.52 1146.21 3038.53 1145.47C3039.55 1144.7 3040.07 1143.71 3040.07 1142.49Z" fill="white"/>
<path d="M5525 1697H6785" stroke="black" stroke-width="3.59831"/>
<path d="M6743.62 1653.82L6786.8 1697L6743.62 1740.18" stroke="black" stroke-width="3.59831"/>
<path d="M3747.96 381.839H3701.38L3690.91 410.855H3675.8L3718.25 299.675H3731.08L3773.61 410.855H3758.57L3747.96 381.839ZM3705.8 369.774H3743.6L3724.67 317.772L3705.8 369.774ZM3826.3 340.91C3824.16 340.553 3821.85 340.375 3819.35 340.375C3810.09 340.375 3803.8 344.32 3800.49 352.211V410.855H3786.36V328.234H3800.11L3800.34 337.779C3804.97 330.397 3811.54 326.707 3820.04 326.707C3822.79 326.707 3824.88 327.063 3826.3 327.776V340.91ZM3870.97 400.852C3876.01 400.852 3880.41 399.325 3884.18 396.271C3887.95 393.216 3890.04 389.398 3890.44 384.817H3903.81C3903.55 389.551 3901.92 394.056 3898.92 398.332C3895.92 402.609 3891.89 406.019 3886.85 408.565C3881.87 411.11 3876.57 412.383 3870.97 412.383C3859.72 412.383 3850.76 408.641 3844.09 401.158C3837.47 393.624 3834.17 383.34 3834.17 370.308V367.941C3834.17 359.898 3835.64 352.745 3838.59 346.484C3841.55 340.222 3845.77 335.361 3851.27 331.899C3856.82 328.437 3863.36 326.707 3870.9 326.707C3880.16 326.707 3887.85 329.481 3893.96 335.03C3900.12 340.579 3903.4 347.782 3903.81 356.64H3890.44C3890.04 351.295 3888 346.917 3884.33 343.506C3880.72 340.044 3876.24 338.313 3870.9 338.313C3863.72 338.313 3858.14 340.91 3854.17 346.102C3850.25 351.244 3848.29 358.701 3848.29 368.476V371.148C3848.29 380.668 3850.25 387.998 3854.17 393.14C3858.09 398.281 3863.69 400.852 3870.97 400.852ZM3933.82 338.237C3940.08 330.55 3948.22 326.707 3958.25 326.707C3975.71 326.707 3984.52 336.557 3984.67 356.258V410.855H3970.55V356.182C3970.49 350.225 3969.12 345.822 3966.42 342.971C3963.77 340.121 3959.63 338.695 3953.98 338.695C3949.39 338.695 3945.37 339.917 3941.91 342.36C3938.45 344.804 3935.75 348.011 3933.82 351.982V410.855H3919.69V293.566H3933.82V338.237ZM4021.17 410.855H4007.05V328.234H4021.17V410.855ZM4005.9 306.318C4005.9 304.028 4006.59 302.093 4007.96 300.515C4009.39 298.937 4011.47 298.148 4014.22 298.148C4016.97 298.148 4019.06 298.937 4020.48 300.515C4021.91 302.093 4022.62 304.028 4022.62 306.318C4022.62 308.609 4021.91 310.518 4020.48 312.045C4019.06 313.573 4016.97 314.336 4014.22 314.336C4011.47 314.336 4009.39 313.573 4007.96 312.045C4006.59 310.518 4005.9 308.609 4005.9 306.318ZM4063.02 308.227V328.234H4078.44V339.153H4063.02V390.391C4063.02 393.7 4063.7 396.194 4065.08 397.874C4066.45 399.503 4068.8 400.318 4072.1 400.318C4073.73 400.318 4075.97 400.012 4078.82 399.401V410.855C4075.11 411.874 4071.49 412.383 4067.98 412.383C4061.67 412.383 4056.91 410.474 4053.7 406.656C4050.49 402.838 4048.89 397.416 4048.89 390.391V339.153H4033.85V328.234H4048.89V308.227H4063.02ZM4129.3 412.383C4118.1 412.383 4108.99 408.717 4101.96 401.387C4094.94 394.005 4091.42 384.155 4091.42 371.835V369.239C4091.42 361.043 4092.98 353.738 4096.08 347.324C4099.24 340.859 4103.62 335.819 4109.22 332.204C4114.87 328.539 4120.97 326.707 4127.54 326.707C4138.28 326.707 4146.63 330.245 4152.59 337.321C4158.54 344.397 4161.52 354.527 4161.52 367.712V373.592H4105.55C4105.75 381.737 4108.12 388.329 4112.65 393.369C4117.23 398.358 4123.04 400.852 4130.06 400.852C4135.05 400.852 4139.28 399.834 4142.74 397.798C4146.2 395.762 4149.23 393.064 4151.82 389.704L4160.45 396.423C4153.53 407.063 4143.14 412.383 4129.3 412.383ZM4127.54 338.313C4121.84 338.313 4117.05 340.4 4113.19 344.575C4109.32 348.698 4106.92 354.502 4106.01 361.985H4147.4V360.916C4146.99 353.738 4145.05 348.189 4141.59 344.269C4138.13 340.299 4133.45 338.313 4127.54 338.313ZM4211.08 400.852C4216.12 400.852 4220.52 399.325 4224.29 396.271C4228.06 393.216 4230.14 389.398 4230.55 384.817H4243.91C4243.66 389.551 4242.03 394.056 4239.03 398.332C4236.02 402.609 4232 406.019 4226.96 408.565C4221.97 411.11 4216.68 412.383 4211.08 412.383C4199.83 412.383 4190.87 408.641 4184.2 401.158C4177.58 393.624 4174.27 383.34 4174.27 370.308V367.941C4174.27 359.898 4175.75 352.745 4178.7 346.484C4181.66 340.222 4185.88 335.361 4191.38 331.899C4196.93 328.437 4203.47 326.707 4211 326.707C4220.27 326.707 4227.96 329.481 4234.06 335.03C4240.22 340.579 4243.51 347.782 4243.91 356.64H4230.55C4230.14 351.295 4228.11 346.917 4224.44 343.506C4220.83 340.044 4216.35 338.313 4211 338.313C4203.83 338.313 4198.25 340.91 4194.28 346.102C4190.36 351.244 4188.4 358.701 4188.4 368.476V371.148C4188.4 380.668 4190.36 387.998 4194.28 393.14C4198.2 398.281 4203.8 400.852 4211.08 400.852ZM4278.96 308.227V328.234H4294.39V339.153H4278.96V390.391C4278.96 393.7 4279.65 396.194 4281.03 397.874C4282.4 399.503 4284.74 400.318 4288.05 400.318C4289.68 400.318 4291.92 400.012 4294.77 399.401V410.855C4291.05 411.874 4287.44 412.383 4283.93 412.383C4277.61 412.383 4272.86 410.474 4269.65 406.656C4266.44 402.838 4264.84 397.416 4264.84 390.391V339.153H4249.79V328.234H4264.84V308.227H4278.96ZM4361.97 402.685C4356.47 409.15 4348.4 412.383 4337.76 412.383C4328.95 412.383 4322.23 409.837 4317.6 404.747C4313.02 399.605 4310.7 392.02 4310.65 381.991V328.234H4324.78V381.61C4324.78 394.133 4329.87 400.394 4340.05 400.394C4350.84 400.394 4358.02 396.372 4361.59 388.329V328.234H4375.71V410.855H4362.27L4361.97 402.685ZM4437.18 340.91C4435.04 340.553 4432.73 340.375 4430.23 340.375C4420.97 340.375 4414.68 344.32 4411.37 352.211V410.855H4397.25V328.234H4410.99L4411.22 337.779C4415.85 330.397 4422.42 326.707 4430.92 326.707C4433.67 326.707 4435.76 327.063 4437.18 327.776V340.91ZM4483 412.383C4471.8 412.383 4462.69 408.717 4455.66 401.387C4448.64 394.005 4445.12 384.155 4445.12 371.835V369.239C4445.12 361.043 4446.68 353.738 4449.78 347.324C4452.94 340.859 4457.32 335.819 4462.92 332.204C4468.57 328.539 4474.68 326.707 4481.24 326.707C4491.98 326.707 4500.33 330.245 4506.29 337.321C4512.24 344.397 4515.22 354.527 4515.22 367.712V373.592H4459.25C4459.45 381.737 4461.82 388.329 4466.35 393.369C4470.93 398.358 4476.74 400.852 4483.76 400.852C4488.75 400.852 4492.98 399.834 4496.44 397.798C4499.9 395.762 4502.93 393.064 4505.52 389.704L4514.15 396.423C4507.23 407.063 4496.84 412.383 4483 412.383ZM4481.24 338.313C4475.54 338.313 4470.76 340.4 4466.89 344.575C4463.02 348.698 4460.62 354.502 4459.71 361.985H4501.1V360.916C4500.69 353.738 4498.75 348.189 4495.29 344.269C4491.83 340.299 4487.15 338.313 4481.24 338.313Z" fill="black"/>
<path d="M6022.53 985.792V911.19H6046.92C6055.01 911.19 6061.09 912.864 6065.16 916.211C6069.25 919.559 6071.3 924.512 6071.3 931.07C6071.3 934.554 6070.31 937.645 6068.33 940.344C6066.35 943.008 6063.65 945.075 6060.24 946.544C6064.27 947.671 6067.44 949.823 6069.77 953C6072.12 956.142 6073.3 959.9 6073.3 964.272C6073.3 970.967 6071.13 976.227 6066.8 980.053C6062.46 983.879 6056.33 985.792 6048.4 985.792H6022.53ZM6032.36 950.899V977.747H6048.61C6053.18 977.747 6056.79 976.569 6059.42 974.212C6062.08 971.821 6063.41 968.542 6063.41 964.374C6063.41 955.391 6058.53 950.899 6048.76 950.899H6032.36ZM6032.36 943.008H6047.22C6051.53 943.008 6054.96 941.932 6057.52 939.78C6060.12 937.628 6061.42 934.708 6061.42 931.019C6061.42 926.92 6060.22 923.948 6057.83 922.103C6055.44 920.225 6051.8 919.285 6046.92 919.285H6032.36V943.008ZM6120.65 985.792C6120.1 984.698 6119.66 982.751 6119.31 979.95C6114.91 984.528 6109.65 986.816 6103.53 986.816C6098.07 986.816 6093.58 985.279 6090.06 982.205C6086.57 979.096 6084.83 975.168 6084.83 970.42C6084.83 964.648 6087.02 960.173 6091.39 956.996C6095.8 953.785 6101.98 952.18 6109.94 952.18H6119.16V947.825C6119.16 944.511 6118.17 941.881 6116.19 939.934C6114.21 937.953 6111.29 936.962 6107.43 936.962C6104.04 936.962 6101.21 937.816 6098.92 939.524C6096.63 941.232 6095.49 943.299 6095.49 945.724H6085.96C6085.96 942.957 6086.93 940.293 6088.88 937.731C6090.86 935.135 6093.52 933.085 6096.87 931.582C6100.25 930.079 6103.96 929.328 6107.99 929.328C6114.38 929.328 6119.38 930.933 6123 934.144C6126.62 937.321 6128.5 941.71 6128.64 947.312V972.828C6128.64 977.918 6129.29 981.966 6130.59 984.972V985.792H6120.65ZM6104.92 978.567C6107.89 978.567 6110.71 977.798 6113.37 976.261C6116.03 974.724 6117.96 972.726 6119.16 970.267V958.892H6111.73C6100.12 958.892 6094.31 962.291 6094.31 969.088C6094.31 972.06 6095.3 974.383 6097.28 976.056C6099.26 977.73 6101.81 978.567 6104.92 978.567ZM6165.73 979.079C6169.12 979.079 6172.07 978.055 6174.6 976.005C6177.13 973.956 6178.53 971.394 6178.8 968.32H6187.77C6187.6 971.496 6186.5 974.519 6184.49 977.389C6182.47 980.258 6179.77 982.546 6176.39 984.254C6173.04 985.962 6169.49 986.816 6165.73 986.816C6158.19 986.816 6152.17 984.306 6147.7 979.284C6143.26 974.229 6141.04 967.329 6141.04 958.584V956.996C6141.04 951.599 6142.03 946.8 6144.01 942.598C6145.99 938.397 6148.83 935.135 6152.52 932.812C6156.24 930.489 6160.63 929.328 6165.68 929.328C6171.9 929.328 6177.06 931.19 6181.16 934.913C6185.29 938.636 6187.49 943.469 6187.77 949.413H6178.8C6178.53 945.826 6177.16 942.889 6174.7 940.6C6172.28 938.277 6169.27 937.116 6165.68 937.116C6160.87 937.116 6157.13 938.858 6154.46 942.342C6151.83 945.792 6150.52 950.796 6150.52 957.355V959.148C6150.52 965.536 6151.83 970.454 6154.46 973.904C6157.09 977.354 6160.85 979.079 6165.73 979.079ZM6213.9 960.122L6207.95 966.321V985.792H6198.48V907.091H6207.95V954.69L6213.03 948.593L6230.29 930.353H6241.82L6220.25 953.512L6244.33 985.792H6233.21L6213.9 960.122ZM6273.59 986.816C6266.07 986.816 6259.96 984.357 6255.25 979.438C6250.53 974.485 6248.18 967.876 6248.18 959.609V957.867C6248.18 952.368 6249.22 947.466 6251.3 943.162C6253.42 938.824 6256.36 935.442 6260.11 933.017C6263.91 930.558 6268 929.328 6272.41 929.328C6279.62 929.328 6285.22 931.702 6289.22 936.45C6293.21 941.198 6295.21 947.995 6295.21 956.842V960.788H6257.65C6257.79 966.253 6259.38 970.676 6262.42 974.058C6265.49 977.406 6269.39 979.079 6274.1 979.079C6277.45 979.079 6280.28 978.396 6282.61 977.03C6284.93 975.664 6286.96 973.853 6288.7 971.599L6294.49 976.108C6289.85 983.247 6282.88 986.816 6273.59 986.816ZM6272.41 937.116C6268.59 937.116 6265.37 938.517 6262.78 941.317C6260.18 944.084 6258.58 947.978 6257.96 953H6285.73V952.282C6285.46 947.466 6284.16 943.743 6281.84 941.113C6279.52 938.448 6276.37 937.116 6272.41 937.116ZM6315.19 930.353L6315.5 937.321C6319.74 931.992 6325.27 929.328 6332.1 929.328C6343.82 929.328 6349.73 935.938 6349.83 949.157V985.792H6340.35V949.106C6340.32 945.109 6339.4 942.154 6337.58 940.242C6335.81 938.329 6333.02 937.372 6329.23 937.372C6326.16 937.372 6323.46 938.192 6321.14 939.832C6318.81 941.471 6317 943.623 6315.71 946.288V985.792H6306.23V930.353H6315.19ZM6361.82 957.611C6361.82 949.106 6363.84 942.274 6367.87 937.116C6371.9 931.924 6377.17 929.328 6383.7 929.328C6390.19 929.328 6395.33 931.548 6399.12 935.989V907.091H6408.6V985.792H6399.89L6399.43 979.848C6395.64 984.493 6390.36 986.816 6383.6 986.816C6377.17 986.816 6371.93 984.186 6367.87 978.926C6363.84 973.665 6361.82 966.8 6361.82 958.328V957.611ZM6371.3 958.687C6371.3 964.972 6372.6 969.891 6375.19 973.443C6377.79 976.996 6381.38 978.772 6385.95 978.772C6391.96 978.772 6396.35 976.073 6399.12 970.676V945.212C6396.29 939.985 6391.93 937.372 6386.06 937.372C6381.41 937.372 6377.79 939.166 6375.19 942.752C6372.6 946.339 6371.3 951.65 6371.3 958.687Z" fill="black"/>
<rect x="6788.42" y="1535.11" width="652.165" height="294.133" fill="black" stroke="white" stroke-width="6.32545"/>
<path d="M7015.27 1685.81C7009.67 1684.2 7005.59 1682.23 7003.03 1679.9C7000.5 1677.54 6999.23 1674.64 6999.23 1671.2C6999.23 1667.3 7000.78 1664.09 7003.88 1661.55C7007.01 1658.99 7011.06 1657.71 7016.05 1657.71C7019.44 1657.71 7022.47 1658.37 7025.12 1659.68C7027.79 1661 7029.85 1662.81 7031.3 1665.12C7032.77 1667.43 7033.51 1669.95 7033.51 1672.7H7026.95C7026.95 1669.71 7026 1667.36 7024.1 1665.66C7022.2 1663.94 7019.51 1663.08 7016.05 1663.08C7012.83 1663.08 7010.32 1663.79 7008.5 1665.22C7006.71 1666.63 7005.82 1668.58 7005.82 1671.1C7005.82 1673.11 7006.67 1674.82 7008.37 1676.23C7010.09 1677.61 7013 1678.88 7017.1 1680.03C7021.22 1681.19 7024.44 1682.47 7026.75 1683.87C7029.08 1685.25 7030.8 1686.87 7031.91 1688.73C7033.05 1690.59 7033.61 1692.77 7033.61 1695.29C7033.61 1699.3 7032.05 1702.51 7028.92 1704.94C7025.8 1707.34 7021.62 1708.54 7016.39 1708.54C7012.99 1708.54 7009.82 1707.89 7006.87 1706.6C7003.93 1705.29 7001.65 1703.5 7000.04 1701.23C6998.46 1698.97 6997.67 1696.4 6997.67 1693.52H7004.22C7004.22 1696.51 7005.32 1698.88 7007.52 1700.62C7009.74 1702.34 7012.69 1703.2 7016.39 1703.2C7019.83 1703.2 7022.47 1702.5 7024.3 1701.1C7026.14 1699.69 7027.05 1697.78 7027.05 1695.36C7027.05 1692.93 7026.2 1691.06 7024.51 1689.75C7022.81 1688.41 7019.73 1687.1 7015.27 1685.81ZM7049.55 1662.2V1671.1H7056.41V1675.96H7049.55V1698.75C7049.55 1700.23 7049.85 1701.34 7050.46 1702.08C7051.07 1702.81 7052.12 1703.17 7053.59 1703.17C7054.31 1703.17 7055.31 1703.03 7056.58 1702.76V1707.86C7054.92 1708.31 7053.32 1708.54 7051.75 1708.54C7048.95 1708.54 7046.83 1707.69 7045.4 1705.99C7043.97 1704.29 7043.26 1701.88 7043.26 1698.75V1675.96H7036.57V1671.1H7043.26V1662.2H7049.55ZM7061.44 1689.14C7061.44 1685.54 7062.14 1682.3 7063.54 1679.42C7064.97 1676.55 7066.94 1674.33 7069.45 1672.76C7071.99 1671.2 7074.88 1670.42 7078.12 1670.42C7083.12 1670.42 7087.17 1672.15 7090.25 1675.62C7093.35 1679.08 7094.9 1683.69 7094.9 1689.44V1689.89C7094.9 1693.46 7094.21 1696.68 7092.83 1699.54C7091.47 1702.37 7089.51 1704.57 7086.95 1706.16C7084.41 1707.75 7081.49 1708.54 7078.19 1708.54C7073.2 1708.54 7069.16 1706.81 7066.06 1703.34C7062.98 1699.87 7061.44 1695.29 7061.44 1689.58V1689.14ZM7067.76 1689.89C7067.76 1693.96 7068.7 1697.24 7070.58 1699.7C7072.48 1702.17 7075.02 1703.41 7078.19 1703.41C7081.38 1703.41 7083.92 1702.16 7085.8 1699.67C7087.68 1697.16 7088.62 1693.65 7088.62 1689.14C7088.62 1685.11 7087.65 1681.85 7085.73 1679.35C7083.83 1676.84 7081.29 1675.58 7078.12 1675.58C7075.02 1675.58 7072.51 1676.82 7070.61 1679.29C7068.71 1681.76 7067.76 1685.29 7067.76 1689.89ZM7120.55 1676.74C7119.6 1676.58 7118.57 1676.5 7117.46 1676.5C7113.34 1676.5 7110.54 1678.26 7109.07 1681.77V1707.86H7102.78V1671.1H7108.9L7109 1675.35C7111.06 1672.06 7113.98 1670.42 7117.77 1670.42C7118.99 1670.42 7119.92 1670.58 7120.55 1670.89V1676.74ZM7147.7 1707.86C7147.34 1707.13 7147.04 1705.84 7146.81 1703.99C7143.89 1707.02 7140.4 1708.54 7136.35 1708.54C7132.73 1708.54 7129.75 1707.52 7127.42 1705.48C7125.1 1703.42 7123.95 1700.81 7123.95 1697.67C7123.95 1693.84 7125.4 1690.87 7128.3 1688.77C7131.22 1686.64 7135.32 1685.57 7140.6 1685.57H7146.71V1682.68C7146.71 1680.49 7146.06 1678.74 7144.74 1677.45C7143.43 1676.14 7141.49 1675.48 7138.93 1675.48C7136.69 1675.48 7134.81 1676.05 7133.29 1677.18C7131.78 1678.31 7131.02 1679.68 7131.02 1681.29H7124.7C7124.7 1679.46 7125.34 1677.69 7126.63 1675.99C7127.95 1674.27 7129.71 1672.91 7131.93 1671.91C7134.18 1670.92 7136.63 1670.42 7139.31 1670.42C7143.54 1670.42 7146.86 1671.48 7149.26 1673.61C7151.66 1675.72 7152.91 1678.63 7153 1682.34V1699.26C7153 1702.64 7153.43 1705.32 7154.29 1707.32V1707.86H7147.7ZM7137.27 1703.07C7139.24 1703.07 7141.11 1702.56 7142.87 1701.54C7144.64 1700.52 7145.92 1699.2 7146.71 1697.56V1690.02H7141.79C7134.09 1690.02 7130.24 1692.28 7130.24 1696.78C7130.24 1698.75 7130.89 1700.29 7132.21 1701.4C7133.52 1702.51 7135.21 1703.07 7137.27 1703.07ZM7161.36 1689.17C7161.36 1683.44 7162.68 1678.89 7165.33 1675.52C7167.98 1672.12 7171.49 1670.42 7175.86 1670.42C7180.35 1670.42 7183.85 1672 7186.36 1675.18L7186.67 1671.1H7192.41V1706.98C7192.41 1711.73 7190.99 1715.48 7188.16 1718.22C7185.35 1720.96 7181.57 1722.33 7176.81 1722.33C7174.16 1722.33 7171.57 1721.77 7169.03 1720.63C7166.5 1719.5 7164.56 1717.95 7163.22 1715.98L7166.49 1712.21C7169.18 1715.54 7172.48 1717.2 7176.37 1717.2C7179.43 1717.2 7181.81 1716.34 7183.51 1714.62C7185.23 1712.9 7186.09 1710.47 7186.09 1707.35V1704.19C7183.58 1707.09 7180.14 1708.54 7175.79 1708.54C7171.49 1708.54 7168 1706.81 7165.33 1703.34C7162.68 1699.87 7161.36 1695.15 7161.36 1689.17ZM7167.68 1689.89C7167.68 1694.03 7168.52 1697.29 7170.22 1699.67C7171.92 1702.03 7174.3 1703.2 7177.36 1703.2C7181.32 1703.2 7184.23 1701.4 7186.09 1697.8V1681.02C7184.16 1677.51 7181.28 1675.75 7177.43 1675.75C7174.37 1675.75 7171.98 1676.94 7170.26 1679.32C7168.54 1681.7 7167.68 1685.22 7167.68 1689.89ZM7217.18 1708.54C7212.19 1708.54 7208.14 1706.91 7205.01 1703.65C7201.89 1700.36 7200.32 1695.98 7200.32 1690.5V1689.34C7200.32 1685.7 7201.02 1682.45 7202.4 1679.59C7203.8 1676.72 7205.75 1674.47 7208.24 1672.87C7210.75 1671.23 7213.47 1670.42 7216.39 1670.42C7221.17 1670.42 7224.89 1671.99 7227.54 1675.14C7230.19 1678.29 7231.51 1682.8 7231.51 1688.66V1691.28H7206.61C7206.7 1694.9 7207.75 1697.84 7209.77 1700.08C7211.81 1702.3 7214.39 1703.41 7217.52 1703.41C7219.74 1703.41 7221.62 1702.96 7223.16 1702.05C7224.7 1701.14 7226.04 1699.94 7227.2 1698.45L7231.04 1701.44C7227.96 1706.17 7223.34 1708.54 7217.18 1708.54ZM7216.39 1675.58C7213.86 1675.58 7211.73 1676.51 7210.01 1678.37C7208.29 1680.2 7207.22 1682.79 7206.81 1686.12H7225.23V1685.64C7225.05 1682.45 7224.19 1679.98 7222.65 1678.23C7221.11 1676.47 7219.02 1675.58 7216.39 1675.58Z" fill="white"/>
<path d="M7398.98 1557.24L7417.96 1576.22M7398.98 1576.22L7417.96 1557.24" stroke="white" stroke-width="6.32545"/>
<rect x="6807.4" y="1506.64" width="257.556" height="69.3018" fill="black"/>
<path d="M6861.83 1527.31L6868.76 1546.88L6875.66 1527.31H6882.96V1554.29H6877.38V1546.92L6877.93 1534.18L6870.65 1554.29H6866.83L6859.57 1534.2L6860.13 1546.92V1554.29H6854.57V1527.31H6861.83ZM6886.63 1544.08C6886.63 1542.09 6887.01 1540.32 6887.77 1538.76C6888.54 1537.21 6889.64 1536 6891.07 1535.15C6892.52 1534.3 6894.19 1533.87 6896.1 1533.87C6898.8 1533.87 6901.01 1534.7 6902.71 1536.35C6904.43 1538.01 6905.39 1540.26 6905.58 1543.1L6905.62 1544.47C6905.62 1547.55 6904.76 1550.02 6903.04 1551.88C6901.33 1553.74 6899.02 1554.66 6896.13 1554.66C6893.24 1554.66 6890.93 1553.74 6889.2 1551.88C6887.48 1550.03 6886.63 1547.51 6886.63 1544.32V1544.08ZM6891.98 1544.47C6891.98 1546.37 6892.34 1547.83 6893.06 1548.84C6893.77 1549.84 6894.8 1550.34 6896.13 1550.34C6897.43 1550.34 6898.44 1549.85 6899.17 1548.86C6899.9 1547.86 6900.26 1546.27 6900.26 1544.08C6900.26 1542.22 6899.9 1540.77 6899.17 1539.74C6898.44 1538.72 6897.42 1538.21 6896.1 1538.21C6894.79 1538.21 6893.77 1538.72 6893.06 1539.74C6892.34 1540.76 6891.98 1542.33 6891.98 1544.47ZM6913.85 1534.24L6914.02 1536.56C6915.45 1534.77 6917.37 1533.87 6919.78 1533.87C6921.9 1533.87 6923.49 1534.49 6924.52 1535.74C6925.56 1536.99 6926.09 1538.85 6926.12 1541.34V1554.29H6920.76V1541.47C6920.76 1540.33 6920.51 1539.51 6920.02 1539C6919.53 1538.48 6918.7 1538.22 6917.55 1538.22C6916.05 1538.22 6914.92 1538.87 6914.16 1540.15V1554.29H6908.81V1534.24H6913.85ZM6929.42 1544.12C6929.42 1541.04 6930.14 1538.56 6931.6 1536.69C6933.07 1534.81 6935.05 1533.87 6937.53 1533.87C6939.73 1533.87 6941.44 1534.62 6942.67 1536.13L6942.89 1534.24H6947.74V1553.62C6947.74 1555.38 6947.34 1556.9 6946.54 1558.2C6945.75 1559.5 6944.63 1560.49 6943.18 1561.17C6941.74 1561.85 6940.05 1562.19 6938.11 1562.19C6936.64 1562.19 6935.2 1561.89 6933.81 1561.3C6932.41 1560.72 6931.35 1559.96 6930.64 1559.04L6933.01 1555.77C6934.34 1557.27 6935.96 1558.02 6937.87 1558.02C6939.29 1558.02 6940.39 1557.63 6941.18 1556.87C6941.97 1556.11 6942.37 1555.04 6942.37 1553.64V1552.57C6941.13 1553.96 6939.51 1554.66 6937.49 1554.66C6935.09 1554.66 6933.13 1553.72 6931.64 1551.85C6930.16 1549.96 6929.42 1547.45 6929.42 1544.34V1544.12ZM6934.77 1544.51C6934.77 1546.32 6935.14 1547.75 6935.86 1548.79C6936.59 1549.81 6937.59 1550.33 6938.87 1550.33C6940.5 1550.33 6941.66 1549.71 6942.37 1548.49V1540.06C6941.65 1538.84 6940.5 1538.22 6938.9 1538.22C6937.62 1538.22 6936.61 1538.75 6935.86 1539.8C6935.14 1540.85 6934.77 1542.42 6934.77 1544.51ZM6951.04 1544.08C6951.04 1542.09 6951.42 1540.32 6952.19 1538.76C6952.96 1537.21 6954.06 1536 6955.49 1535.15C6956.93 1534.3 6958.61 1533.87 6960.51 1533.87C6963.22 1533.87 6965.42 1534.7 6967.13 1536.35C6968.84 1538.01 6969.8 1540.26 6970 1543.1L6970.04 1544.47C6970.04 1547.55 6969.18 1550.02 6967.46 1551.88C6965.74 1553.74 6963.44 1554.66 6960.55 1554.66C6957.66 1554.66 6955.35 1553.74 6953.62 1551.88C6951.9 1550.03 6951.04 1547.51 6951.04 1544.32V1544.08ZM6956.4 1544.47C6956.4 1546.37 6956.76 1547.83 6957.47 1548.84C6958.19 1549.84 6959.21 1550.34 6960.55 1550.34C6961.85 1550.34 6962.86 1549.85 6963.59 1548.86C6964.32 1547.86 6964.68 1546.27 6964.68 1544.08C6964.68 1542.22 6964.32 1540.77 6963.59 1539.74C6962.86 1538.72 6961.83 1538.21 6960.51 1538.21C6959.2 1538.21 6958.19 1538.72 6957.47 1539.74C6956.76 1540.76 6956.4 1542.33 6956.4 1544.47ZM6973.69 1554.29V1527.31H6981.99C6984.36 1527.31 6986.48 1527.85 6988.35 1528.92C6990.22 1529.98 6991.69 1531.5 6992.74 1533.48C6993.79 1535.44 6994.31 1537.68 6994.31 1540.19V1541.43C6994.31 1543.94 6993.79 1546.17 6992.76 1548.12C6991.73 1550.07 6990.28 1551.59 6988.4 1552.66C6986.52 1553.74 6984.4 1554.28 6982.04 1554.29H6973.69ZM6979.25 1531.81V1549.83H6981.93C6984.11 1549.83 6985.77 1549.12 6986.92 1547.69C6988.07 1546.27 6988.65 1544.24 6988.68 1541.6V1540.17C6988.68 1537.43 6988.11 1535.35 6986.97 1533.94C6985.84 1532.52 6984.18 1531.81 6981.99 1531.81H6979.25ZM6998.37 1554.29V1527.31H7007.82C7011.1 1527.31 7013.58 1527.94 7015.27 1529.2C7016.96 1530.45 7017.81 1532.28 7017.81 1534.7C7017.81 1536.03 7017.47 1537.19 7016.79 1538.21C7016.11 1539.21 7015.17 1539.94 7013.96 1540.41C7015.34 1540.76 7016.43 1541.46 7017.22 1542.51C7018.02 1543.56 7018.42 1544.84 7018.42 1546.36C7018.42 1548.95 7017.59 1550.92 7015.94 1552.25C7014.28 1553.59 7011.92 1554.27 7008.86 1554.29H6998.37ZM7003.93 1542.54V1549.83H7008.69C7010 1549.83 7011.02 1549.52 7011.75 1548.9C7012.49 1548.27 7012.86 1547.4 7012.86 1546.3C7012.86 1543.83 7011.58 1542.58 7009.03 1542.54H7003.93ZM7003.93 1538.61H7008.04C7010.85 1538.56 7012.25 1537.45 7012.25 1535.26C7012.25 1534.04 7011.89 1533.16 7011.18 1532.63C7010.47 1532.08 7009.35 1531.81 7007.82 1531.81H7003.93V1538.61Z" fill="white"/>
<rect x="6807.4" y="1506.64" width="257.556" height="69.3018" stroke="white" stroke-width="6.32545"/>
<path d="M5979.14 1864.11V1805H6038.25L5979.14 1864.11Z" fill="#003245"/>
<rect x="5979.14" y="1590" width="429.839" height="214.919" fill="#003245"/>
<path d="M6132.42 1710.43C6132.42 1709.18 6131.9 1708.22 6130.86 1707.57C6129.84 1706.92 6128.14 1706.34 6125.75 1705.84C6123.37 1705.34 6121.38 1704.7 6119.78 1703.93C6116.28 1702.24 6114.53 1699.79 6114.53 1696.58C6114.53 1693.88 6115.66 1691.63 6117.93 1689.82C6120.2 1688.01 6123.09 1687.11 6126.59 1687.11C6130.32 1687.11 6133.33 1688.03 6135.62 1689.88C6137.93 1691.73 6139.09 1694.12 6139.09 1697.07H6132.07C6132.07 1695.72 6131.57 1694.6 6130.57 1693.72C6129.57 1692.81 6128.25 1692.36 6126.59 1692.36C6125.05 1692.36 6123.79 1692.72 6122.81 1693.43C6121.85 1694.14 6121.37 1695.09 6121.37 1696.29C6121.37 1697.36 6121.82 1698.2 6122.72 1698.8C6123.63 1699.39 6125.46 1700 6128.21 1700.62C6130.96 1701.21 6133.11 1701.93 6134.67 1702.78C6136.25 1703.61 6137.41 1704.61 6138.16 1705.78C6138.93 1706.95 6139.32 1708.38 6139.32 1710.05C6139.32 1712.86 6138.15 1715.14 6135.83 1716.89C6133.5 1718.62 6130.45 1719.49 6126.68 1719.49C6124.12 1719.49 6121.84 1719.03 6119.84 1718.1C6117.84 1717.18 6116.28 1715.91 6115.16 1714.29C6114.05 1712.68 6113.49 1710.94 6113.49 1709.07H6120.3C6120.4 1710.73 6121.02 1712.01 6122.18 1712.91C6123.33 1713.79 6124.86 1714.24 6126.76 1714.24C6128.61 1714.24 6130.02 1713.89 6130.98 1713.2C6131.94 1712.49 6132.42 1711.56 6132.42 1710.43ZM6154.24 1680.1V1687.69H6159.75V1692.88H6154.24V1710.31C6154.24 1711.51 6154.47 1712.37 6154.93 1712.91C6155.41 1713.43 6156.26 1713.69 6157.47 1713.69C6158.28 1713.69 6159.1 1713.59 6159.92 1713.4V1718.83C6158.33 1719.27 6156.79 1719.49 6155.31 1719.49C6149.92 1719.49 6147.23 1716.52 6147.23 1710.57V1692.88H6142.09V1687.69H6147.23V1680.1H6154.24ZM6162.95 1703.01C6162.95 1699.95 6163.56 1697.2 6164.77 1694.76C6165.98 1692.29 6167.69 1690.41 6169.88 1689.1C6172.07 1687.77 6174.59 1687.11 6177.44 1687.11C6181.65 1687.11 6185.07 1688.47 6187.69 1691.18C6190.32 1693.89 6191.74 1697.49 6191.96 1701.97L6191.99 1703.62C6191.99 1706.7 6191.39 1709.45 6190.2 1711.87C6189.02 1714.29 6187.33 1716.17 6185.12 1717.5C6182.92 1718.83 6180.38 1719.49 6177.5 1719.49C6173.09 1719.49 6169.56 1718.03 6166.91 1715.1C6164.27 1712.16 6162.95 1708.24 6162.95 1703.36V1703.01ZM6169.97 1703.62C6169.97 1706.83 6170.63 1709.35 6171.96 1711.18C6173.28 1712.99 6175.13 1713.89 6177.5 1713.89C6179.86 1713.89 6181.7 1712.97 6183.01 1711.12C6184.34 1709.27 6185 1706.57 6185 1703.01C6185 1699.86 6184.32 1697.35 6182.95 1695.51C6181.61 1693.66 6179.77 1692.74 6177.44 1692.74C6175.15 1692.74 6173.33 1693.65 6171.99 1695.48C6170.64 1697.29 6169.97 1700 6169.97 1703.62ZM6214.26 1694.09C6213.34 1693.94 6212.39 1693.86 6211.41 1693.86C6208.19 1693.86 6206.03 1695.09 6204.91 1697.56V1718.91H6197.9V1687.69H6204.6L6204.77 1691.18C6206.46 1688.47 6208.81 1687.11 6211.81 1687.11C6212.81 1687.11 6213.64 1687.24 6214.29 1687.51L6214.26 1694.09ZM6231.87 1719.49C6227.42 1719.49 6223.82 1718.09 6221.05 1715.3C6218.29 1712.5 6216.92 1708.76 6216.92 1704.11V1703.24C6216.92 1700.13 6217.52 1697.34 6218.71 1694.9C6219.92 1692.44 6221.61 1690.52 6223.79 1689.16C6225.96 1687.79 6228.39 1687.11 6231.06 1687.11C6235.31 1687.11 6238.59 1688.47 6240.9 1691.18C6243.23 1693.89 6244.39 1697.73 6244.39 1702.69V1705.52H6223.99C6224.2 1708.1 6225.06 1710.14 6226.56 1711.64C6228.08 1713.14 6229.98 1713.89 6232.27 1713.89C6235.48 1713.89 6238.1 1712.59 6240.12 1709.99L6243.9 1713.6C6242.65 1715.47 6240.98 1716.92 6238.88 1717.96C6236.8 1718.98 6234.47 1719.49 6231.87 1719.49ZM6231.03 1692.74C6229.11 1692.74 6227.55 1693.41 6226.36 1694.76C6225.18 1696.1 6224.43 1697.98 6224.1 1700.38H6237.47V1699.87C6237.31 1697.52 6236.69 1695.75 6235.59 1694.56C6234.49 1693.34 6232.97 1692.74 6231.03 1692.74ZM6267.36 1710.43C6267.36 1709.18 6266.84 1708.22 6265.81 1707.57C6264.79 1706.92 6263.08 1706.34 6260.7 1705.84C6258.31 1705.34 6256.32 1704.7 6254.72 1703.93C6251.22 1702.24 6249.47 1699.79 6249.47 1696.58C6249.47 1693.88 6250.61 1691.63 6252.88 1689.82C6255.15 1688.01 6258.03 1687.11 6261.53 1687.11C6265.27 1687.11 6268.28 1688.03 6270.57 1689.88C6272.88 1691.73 6274.03 1694.12 6274.03 1697.07H6267.02C6267.02 1695.72 6266.52 1694.6 6265.52 1693.72C6264.52 1692.81 6263.19 1692.36 6261.53 1692.36C6260 1692.36 6258.74 1692.72 6257.75 1693.43C6256.79 1694.14 6256.31 1695.09 6256.31 1696.29C6256.31 1697.36 6256.76 1698.2 6257.67 1698.8C6258.57 1699.39 6260.4 1700 6263.15 1700.62C6265.9 1701.21 6268.06 1701.93 6269.62 1702.78C6271.19 1703.61 6272.36 1704.61 6273.11 1705.78C6273.88 1706.95 6274.26 1708.38 6274.26 1710.05C6274.26 1712.86 6273.1 1715.14 6270.77 1716.89C6268.44 1718.62 6265.39 1719.49 6261.62 1719.49C6259.06 1719.49 6256.78 1719.03 6254.78 1718.1C6252.78 1717.18 6251.22 1715.91 6250.11 1714.29C6248.99 1712.68 6248.43 1710.94 6248.43 1709.07H6255.24C6255.34 1710.73 6255.97 1712.01 6257.12 1712.91C6258.27 1713.79 6259.8 1714.24 6261.71 1714.24C6263.55 1714.24 6264.96 1713.89 6265.92 1713.2C6266.88 1712.49 6267.36 1711.56 6267.36 1710.43Z" fill="white"/>
</g>
<defs>
<clipPath id="clip0_110_53">
<rect width="8192" height="3027" fill="white"/>
</clipPath>
</defs>
</svg>
